<svg width="27" height="27" viewBox="0 0 27 27" fill="none" xmlns="http://www.w3.org/2000/svg">
<path d="M18.7055 0.621216H8.29442C4.06336 0.621216 0.621216 4.06336 0.621216 8.29441V18.7055C0.621216 22.9364 4.06336 26.3788 8.2945 26.3788H18.7056C22.9365 26.3788 26.3789 22.9365 26.3789 18.7055V8.29441C26.3788 4.06336 22.9365 0.621216 18.7055 0.621216ZM23.7876 18.7056C23.7876 21.5123 21.5123 23.7876 18.7056 23.7876H8.2945C5.4878 23.7876 3.21249 21.5123 3.21249 18.7056V8.2945C3.21249 5.4878 5.4878 3.21241 8.2945 3.21241H18.7056C21.5123 3.21241 23.7876 5.48789 23.7876 8.2945V18.7056Z" fill="black"/>
<path d="M13.5 6.83807C9.82671 6.83807 6.83807 9.82671 6.83807 13.5C6.83807 17.173 9.82671 20.1617 13.5 20.1617C17.1733 20.1617 20.1617 17.1733 20.1617 13.5C20.1617 9.82671 17.1733 6.83807 13.5 6.83807ZM13.5 17.5705C11.2519 17.5705 9.42927 15.7482 9.42927 13.5C9.42927 11.2518 11.2519 9.42927 13.5 9.42927C15.7482 9.42927 17.5705 11.2517 17.5705 13.5C17.5705 15.7482 15.7482 17.5705 13.5 17.5705Z" fill="black"/>
<path d="M21.7707 6.88835C21.7707 7.76989 21.056 8.48471 20.1744 8.48471C19.2928 8.48471 18.578 7.76989 18.578 6.88835C18.578 6.00672 19.2928 5.29199 20.1744 5.29199C21.0562 5.29199 21.7707 6.00654 21.7707 6.88835Z" fill="black"/>
<path d="M18.7056 0.621216H13.4495V3.21241H18.7056C21.5123 3.21241 23.7876 5.48789 23.7876 8.2945V18.7056C23.7876 21.5123 21.5123 23.7876 18.7056 23.7876H13.4495V26.3788H18.7056C22.9364 26.3788 26.3788 22.9365 26.3788 18.7055V8.29441C26.3788 4.06336 22.9365 0.621216 18.7056 0.621216Z" fill="black"/>
<path d="M13.5 6.83807C13.483 6.83807 13.4665 6.8393 13.4495 6.8393V9.4305C13.4663 9.43032 13.483 9.42927 13.5 9.42927C15.7481 9.42927 17.5705 11.2517 17.5705 13.5C17.5705 15.7482 15.7482 17.5705 13.5 17.5705C13.483 17.5705 13.4663 17.5694 13.4495 17.5693V20.1604C13.4665 20.1606 13.483 20.1617 13.5 20.1617C17.1733 20.1617 20.1616 17.1732 20.1616 13.5C20.1616 9.82671 17.1733 6.83807 13.5 6.83807Z" fill="black"/>
</svg>
