<svg width="27" height="22" viewBox="0 0 27 22" fill="none" xmlns="http://www.w3.org/2000/svg">
<path d="M26.2822 3.16994C25.318 3.59749 24.2808 3.88667 23.193 4.01582C24.3036 3.35043 25.1559 2.29759 25.5582 1.04101C24.519 1.65747 23.3675 2.10467 22.143 2.34572C21.162 1.30091 19.7642 0.647949 18.2164 0.647949C15.2468 0.647949 12.8384 3.05644 12.8384 6.02603C12.8384 6.44757 12.8861 6.85787 12.9783 7.25174C8.50869 7.02753 4.54562 4.88656 1.89287 1.6318C1.43003 2.42594 1.16451 3.35043 1.16451 4.33588C1.16451 6.20131 2.11467 7.84814 3.55695 8.81234C2.67578 8.78466 1.84595 8.54281 1.1212 8.13893C1.12079 8.16179 1.12079 8.18465 1.12079 8.20711C1.12079 10.8129 2.97539 12.9864 5.43521 13.4801C4.9844 13.6036 4.50832 13.669 4.0186 13.669C3.67126 13.669 3.33476 13.6357 3.00667 13.5732C3.69092 15.7093 5.67666 17.2643 8.0306 17.308C6.18965 18.7507 3.871 19.6102 1.35061 19.6102C0.917446 19.6102 0.48829 19.585 0.0683594 19.5348C2.44717 21.0613 5.27478 21.9513 8.31176 21.9513C18.204 21.9513 23.6138 13.7565 23.6138 6.64891C23.6138 6.41588 23.6086 6.18366 23.5981 5.95344C24.6498 5.1954 25.5614 4.24845 26.2822 3.16994Z" fill="black"/>
</svg>
